<svg width="36" height="36" viewBox="0 0 36 36" fill="none" xmlns="http://www.w3.org/2000/svg">
<path d="M18.915 23.6763C18.7362 23.8867 18.7618 24.2023 18.9723 24.381C19.1827 24.5598 19.4983 24.5342 19.6771 24.3237L18.915 23.6763ZM24.7746 18.3237C24.9534 18.1133 24.9277 17.7977 24.7173 17.619C24.5068 17.4402 24.1913 17.4658 24.0125 17.6763L24.7746 18.3237ZM24.0125 18.3237C24.1913 18.5342 24.5068 18.5598 24.7173 18.381C24.9277 18.2023 24.9534 17.8867 24.7746 17.6763L24.0125 18.3237ZM19.6771 11.6763C19.4983 11.4658 19.1827 11.4402 18.9723 11.619C18.7618 11.7977 18.7362 12.1133 18.915 12.3237L19.6771 11.6763ZM24.3936 18.5C24.6697 18.5 24.8936 18.2761 24.8936 18C24.8936 17.7239 24.6697 17.5 24.3936 17.5V18.5ZM10.8001 17.5C10.524 17.5 10.3001 17.7239 10.3001 18C10.3001 18.2761 10.524 18.5 10.8001 18.5V17.5ZM19.6771 24.3237L24.7746 18.3237L24.0125 17.6763L18.915 23.6763L19.6771 24.3237ZM24.7746 17.6763L19.6771 11.6763L18.915 12.3237L24.0125 18.3237L24.7746 17.6763ZM24.3936 17.5L10.8001 17.5V18.5L24.3936 18.5V17.5Z" fill="#FFF"/>
<circle cx="18" cy="18" r="17.75" stroke="#fff" stroke-width=".7"/>
</svg>
